<svg width="58" height="64" viewBox="0 0 58 64" fill="none" xmlns="http://www.w3.org/2000/svg">
<path d="M28.8 0C36.16 0 42.56 6.4 42.56 13.44C42.5186 15.9213 41.8295 18.3487 40.561 20.4817C39.2925 22.6146 37.4885 24.379 35.328 25.6C38.528 24 43.2 24 43.2 24C51.2 24 57.6 29.76 57.6 37.76C57.6 45.76 51.2 51.2 43.2 51.2C43.2 51.2 38.4 51.2 32 48C32 48 31.04 54.4 38.4 64H19.2C26.56 54.4 25.6 48 25.6 48C19.2 51.2 14.4 51.2 14.4 51.2C6.4 51.2 0 45.76 0 37.76C0 29.76 6.4 24 14.4 24C14.4 24 19.072 24 22.272 25.6C21.312 25.056 15.328 21.664 15.04 13.44C15.04 6.4 21.44 0 28.8 0Z" fill="black"/>
</svg>
